<svg width="1334" height="1000" viewBox="0 0 1334 1000" version="1.1" xmlns="http://www.w3.org/2000/svg" xmlns:xlink="http://www.w3.org/1999/xlink" xmlns:figma="http://www.figma.com/figma/ns">
<title>momm-3x4</title>
<desc>Created using Figma</desc>
<g id="Canvas" transform="matrix(2 0 0 2 0 0)" figma:type="canvas">
<rect x="0" y="0" width="667" height="500" fill="#E5E5E5"/>
<g id="momm-3x4" style="mix-blend-mode:normal;isolation:isolate;" figma:type="frame">
<path d="M 0 -5.68434e-14L 667 -5.68434e-14L 667 500L 0 500L 0 -5.68434e-14Z" fill="#231E1E"/>
<g id="Group" style="mix-blend-mode:normal;" figma:type="frame">
<g id="concave" style="mix-blend-mode:normal;" figma:type="frame">
<g id="Vector" style="mix-blend-mode:normal;" figma:type="vector">
<use xlink:href="#path0_stroke" transform="translate(254.167 259.304)" fill="#FFFFFF" style="mix-blend-mode:normal;"/>
</g>
<g id="Vector" style="mix-blend-mode:normal;" figma:type="vector">
<use xlink:href="#path1_stroke" transform="translate(244.713 254.923)" fill="#FFFFFF" style="mix-blend-mode:normal;"/>
</g>
<g id="Vector" style="mix-blend-mode:normal;" figma:type="vector">
<use xlink:href="#path2_stroke" transform="translate(383.33 255.16)" fill="#FFFFFF" style="mix-blend-mode:normal;"/>
</g>
<g id="Vector" style="mix-blend-mode:normal;" figma:type="vector">
<use xlink:href="#path3_stroke" transform="translate(287.908 333.179)" fill="#FFFFFF" style="mix-blend-mode:normal;"/>
</g>
<g id="Vector" style="mix-blend-mode:normal;" figma:type="vector">
<use xlink:href="#path4_stroke" transform="translate(288.855 381.482)" fill="#FFFFFF" style="mix-blend-mode:normal;"/>
</g>
<g id="Vector" style="mix-blend-mode:normal;" figma:type="vector">
<use xlink:href="#path5_stroke" transform="translate(469.755 293.163)" fill="#FFFFFF" style="mix-blend-mode:normal;"/>
</g>
<g id="Vector" style="mix-blend-mode:normal;" figma:type="vector">
<use xlink:href="#path6_stroke" transform="translate(287.908 293.163)" fill="#FFFFFF" style="mix-blend-mode:normal;"/>
</g>
<g id="Vector" style="mix-blend-mode:normal;" figma:type="vector">
<use xlink:href="#path7_stroke" transform="translate(190.71 270.788)" fill="#FFFFFF" style="mix-blend-mode:normal;"/>
</g>
<g id="Vector" style="mix-blend-mode:normal;" figma:type="vector">
<use xlink:href="#path8_stroke" transform="translate(193.907 353.897)" fill="#FFFFFF" style="mix-blend-mode:normal;"/>
</g>
<g id="Vector" style="mix-blend-mode:normal;" figma:type="vector">
<use xlink:href="#path9_stroke" transform="translate(190.71 270.788)" fill="#FFFFFF" style="mix-blend-mode:normal;"/>
</g>
<g id="Vector" style="mix-blend-mode:normal;" figma:type="vector">
<use xlink:href="#path10_stroke" transform="translate(203.733 251.49)" fill="#FFFFFF" style="mix-blend-mode:normal;"/>
</g>
<g id="Vector" style="mix-blend-mode:normal;" figma:type="vector">
<use xlink:href="#path11_stroke" transform="translate(203.733 262.264)" fill="#FFFFFF" style="mix-blend-mode:normal;"/>
</g>
<g id="Vector" style="mix-blend-mode:normal;" figma:type="vector">
<use xlink:href="#path12_stroke" transform="translate(292.407 281.916)" fill="#FFFFFF" style="mix-blend-mode:normal;"/>
</g>
<g id="Vector" style="mix-blend-mode:normal;" figma:type="vector">
<use xlink:href="#path13_stroke" transform="translate(387.711 251.135)" fill="#FFFFFF" style="mix-blend-mode:normal;"/>
</g>
<g id="Vector" style="mix-blend-mode:normal;" figma:type="vector">
<use xlink:href="#path14_stroke" transform="translate(459.218 281.916)" fill="#FFFFFF" style="mix-blend-mode:normal;"/>
</g>
<g id="Vector" style="mix-blend-mode:normal;" figma:type="vector">
<use xlink:href="#path15_stroke" transform="translate(287.908 316.368)" fill="#FFFFFF" style="mix-blend-mode:normal;"/>
</g>
<g id="Vector" style="mix-blend-mode:normal;" figma:type="vector">
<use xlink:href="#path16_stroke" transform="translate(190.71 262.264)" fill="#FFFFFF" style="mix-blend-mode:normal;"/>
</g>
</g>
<g id="convex" style="mix-blend-mode:normal;" figma:type="frame">
<g id="Vector" style="mix-blend-mode:normal;" figma:type="vector">
<use xlink:href="#path17_stroke" transform="translate(478.871 90.0062)" fill="#FFFFFF" style="mix-blend-mode:normal;"/>
</g>
<g id="Vector" style="mix-blend-mode:normal;" figma:type="vector">
<use xlink:href="#path18_stroke" transform="translate(285.896 90.0062)" fill="#FFFFFF" style="mix-blend-mode:normal;"/>
</g>
<g id="Vector" style="mix-blend-mode:normal;" figma:type="vector">
<use xlink:href="#path19_stroke" transform="translate(285.896 107.173)" fill="#FFFFFF" style="mix-blend-mode:normal;"/>
</g>
<g id="Vector" style="mix-blend-mode:normal;" figma:type="vector">
<use xlink:href="#path20_stroke" transform="translate(359.652 68.5776)" fill="#FFFFFF" style="mix-blend-mode:normal;"/>
</g>
<g id="Vector" style="mix-blend-mode:normal;" figma:type="vector">
<use xlink:href="#path21_stroke" transform="translate(183.488 80.535)" fill="#FFFFFF" style="mix-blend-mode:normal;"/>
</g>
<g id="Vector" style="mix-blend-mode:normal;" figma:type="vector">
<use xlink:href="#path22_stroke" transform="translate(183.488 68.5776)" fill="#FFFFFF" style="mix-blend-mode:normal;"/>
</g>
<g id="Vector" style="mix-blend-mode:normal;" figma:type="vector">
<use xlink:href="#path23_stroke" transform="translate(187.04 173.234)" fill="#FFFFFF" style="mix-blend-mode:normal;"/>
</g>
<g id="Vector" style="mix-blend-mode:normal;" figma:type="vector">
<use xlink:href="#path24_stroke" transform="translate(183.488 80.535)" fill="#FFFFFF" style="mix-blend-mode:normal;"/>
</g>
<g id="Vector" style="mix-blend-mode:normal;" figma:type="vector">
<use xlink:href="#path25_stroke" transform="translate(201.01 184.008)" fill="#FFFFFF" style="mix-blend-mode:normal;"/>
</g>
<g id="Vector" style="mix-blend-mode:normal;" figma:type="vector">
<use xlink:href="#path26_stroke" transform="translate(291.697 199.043)" fill="#FFFFFF" style="mix-blend-mode:normal;"/>
</g>
<g id="Vector" style="mix-blend-mode:normal;" figma:type="vector">
<use xlink:href="#path27_stroke" transform="translate(286.843 217.986)" fill="#FFFFFF" style="mix-blend-mode:normal;"/>
</g>
<g id="Vector" style="mix-blend-mode:normal;" figma:type="vector">
<use xlink:href="#path28_stroke" transform="translate(462.77 189.335)" fill="#FFFFFF" style="mix-blend-mode:normal;"/>
</g>
<g id="Vector" style="mix-blend-mode:normal;" figma:type="vector">
<use xlink:href="#path29_stroke" transform="translate(187.04 173.234)" fill="#FFFFFF" style="mix-blend-mode:normal;"/>
</g>
<g id="Vector" style="mix-blend-mode:normal;" figma:type="vector">
<use xlink:href="#path30_stroke" transform="translate(286.843 189.335)" fill="#FFFFFF" style="mix-blend-mode:normal;"/>
</g>
<g id="Vector" style="mix-blend-mode:normal;" figma:type="vector">
<use xlink:href="#path31_stroke" transform="translate(243.986 203.661)" fill="#FFFFFF" style="mix-blend-mode:normal;"/>
</g>
<g id="Vector" style="mix-blend-mode:normal;" figma:type="vector">
<use xlink:href="#path32_stroke" transform="translate(288.263 207.094)" fill="#FFFFFF" style="mix-blend-mode:normal;"/>
</g>
</g>
</g>
</g>
</g>
<defs>
<path id="path0_stroke" d="M 141.605 -1.37372C 140.846 -1.70641 139.961 -1.36107 139.629 -0.602377C 139.296 0.156313 139.641 1.04105 140.4 1.37374L 141.605 -1.37372ZM 138.516 30.4262L 139.055 31.8262L 139.057 31.8252L 138.516 30.4262ZM 92.3441 39.3055L 92.246 37.8087L 92.2414 37.809L 92.3441 39.3055ZM 0.770759 24.6406C 0.0600619 24.2149 -0.861152 24.4459 -1.28683 25.1566C -1.71251 25.8673 -1.48145 26.7885 -0.770757 27.2142L 0.770759 24.6406ZM 140.4 1.37374C 145.837 3.75797 149.584 6.25436 151.87 8.70686C 154.134 11.1369 154.891 13.432 154.61 15.5487C 154.323 17.7165 152.904 20.0411 150.096 22.3906C 147.243 24.7862 143.239 26.9953 137.975 29.0272L 139.057 31.8252C 144.508 29.7135 148.939 27.2609 152.021 24.6915C 155.147 22.0761 157.161 19.1324 157.584 15.943C 158.014 12.7026 156.758 9.55179 154.065 6.66164C 151.392 3.794 147.237 1.09603 141.605 -1.37372L 140.4 1.37374ZM 137.978 29.0262C 124.285 34.3026 106.63 36.8666 92.246 37.8087L 92.4423 40.8022C 106.945 39.8501 125.044 37.2049 139.055 31.8262L 137.978 29.0262ZM 92.2414 37.809C 80.2144 38.6352 62.9427 38.6954 45.7995 36.8521C 28.6224 35.0075 11.8456 31.2739 0.770759 24.6406L -0.770757 27.2142C 10.8852 34.1957 28.2047 37.9799 45.4791 39.835C 62.7874 41.6914 80.3223 41.6332 92.4468 40.8019L 92.2414 37.809Z"/>
<path id="path1_stroke" d="M 8.57156 31.7172C 9.28458 32.139 10.2045 31.9029 10.6263 31.1899C 11.0481 30.4769 10.812 29.557 10.099 29.1352L 8.57156 31.7172ZM 4.48128 10.5367L 5.47879 11.657L 5.48347 11.6528L 4.48128 10.5367ZM 27.5986 1.44935C 28.3991 1.23589 28.8749 0.413954 28.6615 -0.386501C 28.448 -1.18696 27.6261 -1.66281 26.8256 -1.44936L 27.5986 1.44935ZM 10.099 29.1352C 5.98466 26.7014 2.98443 23.8784 1.92347 20.986C 1.36356 19.5091 1.29132 18.2298 1.83594 16.6621C 2.33746 15.1438 3.4534 13.4604 5.47878 11.657L 3.48379 9.41644C 1.18794 11.4607 -0.300706 13.5657 -1.01268 15.7212C -1.68155 17.8273 -1.57621 20.1072 -0.893028 22.0191C 0.5322 25.9046 4.2802 29.1787 8.57156 31.7172L 10.099 29.1352ZM 5.48347 11.6528C 10.996 6.70275 20.5095 3.33977 27.5986 1.44935L 26.8256 -1.44936C 19.708 0.448691 9.56878 3.95234 3.47909 9.42063L 5.48347 11.6528Z"/>
<path id="path2_stroke" d="M 0.423253 -1.43904C -0.371511 -1.6728 -1.20529 -1.21801 -1.43904 -0.423242C -1.6728 0.371522 -1.21801 1.2053 -0.423246 1.43906L 0.423253 -1.43904ZM 11.2378 5.51789C 11.9967 5.84994 12.8812 5.50385 13.2132 4.74488C 13.5453 3.98591 13.1992 3.10147 12.4402 2.76942L 11.2378 5.51789ZM -0.423246 1.43906C 3.58273 2.61714 7.51838 3.88863 11.2378 5.51789L 12.4402 2.76942C 8.58265 1.08376 4.46779 -0.249331 0.423253 -1.43904L -0.423246 1.43906Z"/>
<path id="path3_stroke" d="M -0.55281 97.2127C -0.544738 98.0411 0.133347 98.7061 0.961735 98.698C 1.79012 98.69 2.45512 98.0119 2.44705 97.1835L -0.55281 97.2127ZM 1.49993 -0.0146157C 1.49185 -0.843003 0.813769 -1.508 -0.0146193 -1.49993C -0.843007 -1.49186 -1.508 -0.813772 -1.49993 0.0146157L 1.49993 -0.0146157ZM 2.44705 97.1835L 1.49993 -0.0146157L -1.49993 0.0146157L -0.55281 97.2127L 2.44705 97.1835Z"/>
<path id="path4_stroke" d="M -0.391388 47.447C -1.19112 47.6632 -1.6642 48.4867 -1.44804 49.2864C -1.23188 50.0862 -0.408342 50.5592 0.391388 50.3431L -0.391388 47.447ZM 181.291 1.44802C 182.091 1.23187 182.564 0.408328 182.348 -0.391402C 182.132 -1.19113 181.308 -1.66421 180.508 -1.44805L 181.291 1.44802ZM 0.391388 50.3431L 181.291 1.44802L 180.508 -1.44805L -0.391388 47.447L 0.391388 50.3431Z"/>
<path id="path5_stroke" d="M -1.49835 88.2486C -1.53717 89.0761 -0.897811 89.7784 -0.0702944 89.8172C 0.757222 89.856 1.45953 89.2167 1.49836 88.3892L -1.49835 88.2486ZM 5.642 0.0702944C 5.68083 -0.757222 5.04146 -1.45953 4.21395 -1.49836C 3.38643 -1.53718 2.68412 -0.897818 2.6453 -0.0703016L 5.642 0.0702944ZM 1.49836 88.3892L 5.642 0.0702944L 2.6453 -0.0703016L -1.49835 88.2486L 1.49836 88.3892Z"/>
<path id="path6_stroke" d="M -0.315508 38.5493C -1.1254 38.7236 -1.6407 39.5214 -1.46645 40.3313C -1.2922 41.1412 -0.494393 41.6565 0.315501 41.4822L -0.315508 38.5493ZM 186.306 1.46644C 187.116 1.29219 187.631 0.494386 187.457 -0.315508C 187.283 -1.1254 186.485 -1.6407 185.675 -1.46645L 186.306 1.46644ZM 0.315501 41.4822L 186.306 1.46644L 185.675 -1.46645L -0.315508 38.5493L 0.315501 41.4822Z"/>
<path id="path7_stroke" d="M 1.69764 83.1674C 1.72947 83.9952 2.42636 84.6404 3.25418 84.6086C 4.08199 84.5768 4.72726 83.8799 4.69542 83.0521L 1.69764 83.1674ZM 1.49889 -0.0576461C 1.46705 -0.885461 0.770165 -1.53073 -0.0576498 -1.49889C -0.885465 -1.46705 -1.53073 -0.770162 -1.49889 0.0576533L 1.49889 -0.0576461ZM 4.69542 83.0521L 1.49889 -0.0576461L -1.49889 0.0576533L 1.69764 83.1674L 4.69542 83.0521Z"/>
<path id="path8_stroke" d="M 0.940946 -1.16817C 0.295783 -1.68784 -0.6485 -1.58611 -1.16817 -0.940945C -1.68784 -0.295783 -1.58611 0.648501 -0.940945 1.16817L 0.940946 -1.16817ZM 94.0077 77.6481C 94.6529 78.1677 95.5972 78.066 96.1169 77.4208C 96.6365 76.7757 96.5348 75.8314 95.8896 75.3117L 94.0077 77.6481ZM -0.940945 1.16817L 94.0077 77.6481L 95.8896 75.3117L 0.940946 -1.16817L -0.940945 1.16817Z"/>
<path id="path9_stroke" d="M 0.810281 -1.26231C 0.113123 -1.70982 -0.814811 -1.50744 -1.26232 -0.810278C -1.70982 -0.113119 -1.50744 0.814814 -0.810282 1.26232L 0.810281 -1.26231ZM 96.3878 63.6538C 97.085 64.1013 98.0129 63.8989 98.4604 63.2018C 98.9079 62.5046 98.7055 61.5767 98.0084 61.1292L 96.3878 63.6538ZM -0.810282 1.26232L 96.3878 63.6538L 98.0084 61.1292L 0.810281 -1.26231L -0.810282 1.26232Z"/>
<path id="path10_stroke" d="M 64.8875 1.47959C 65.7046 1.3434 66.2567 0.570557 66.1205 -0.246599C 65.9843 -1.06375 65.2114 -1.61578 64.3943 -1.47959L 64.8875 1.47959ZM -0.246598 9.2939C -1.06375 9.43009 -1.61578 10.2029 -1.47959 11.0201C -1.3434 11.8372 -0.570556 12.3893 0.246599 12.2531L -0.246598 9.2939ZM 64.3943 -1.47959L -0.246598 9.2939L 0.246599 12.2531L 64.8875 1.47959L 64.3943 -1.47959Z"/>
<path id="path11_stroke" d="M 0.781276 -1.28046C 0.0740913 -1.71195 -0.848985 -1.48845 -1.28047 -0.781269C -1.71196 -0.0740836 -1.48846 0.848992 -0.781275 1.28048L 0.781276 -1.28046ZM 87.8928 55.3847C 88.5999 55.8162 89.523 55.5927 89.9545 54.8855C 90.386 54.1783 90.1625 53.2552 89.4553 52.8237L 87.8928 55.3847ZM -0.781275 1.28048L 87.8928 55.3847L 89.4553 52.8237L 0.781276 -1.28046L -0.781275 1.28048Z"/>
<path id="path12_stroke" d="M -0.303391 32.9825C -1.1147 33.15 -1.63656 33.9436 -1.469 34.7549C -1.30144 35.5662 -0.507914 36.088 0.303391 35.9205L -0.303391 32.9825ZM 167.115 1.46899C 167.926 1.30144 168.448 0.50791 168.28 -0.303395C 168.113 -1.1147 167.319 -1.63656 166.508 -1.469L 167.115 1.46899ZM 0.303391 35.9205L 167.115 1.46899L 166.508 -1.469L -0.303391 32.9825L 0.303391 35.9205Z"/>
<path id="path13_stroke" d="M 70.9144 32.1591C 71.6753 32.4867 72.5577 32.1354 72.8853 31.3745C 73.2128 30.6135 72.8615 29.7311 72.1006 29.4036L 70.9144 32.1591ZM 0.593081 -1.37778C -0.167842 -1.70532 -1.05022 -1.35401 -1.37777 -0.593084C -1.70532 0.167838 -1.354 1.05022 -0.593081 1.37777L 0.593081 -1.37778ZM 72.1006 29.4036L 0.593081 -1.37778L -0.593081 1.37777L 70.9144 32.1591L 72.1006 29.4036Z"/>
<path id="path14_stroke" d="M 13.7681 12.4378C 14.4257 12.9416 15.3673 12.8169 15.8711 12.1593C 16.3749 11.5017 16.2502 10.5601 15.5926 10.0563L 13.7681 12.4378ZM 0.912236 -1.19072C 0.254621 -1.69454 -0.686908 -1.56986 -1.19073 -0.912247C -1.69454 -0.254631 -1.56987 0.686897 -0.912251 1.19072L 0.912236 -1.19072ZM 15.5926 10.0563L 0.912236 -1.19072L -0.912251 1.19072L 13.7681 12.4378L 15.5926 10.0563Z"/>
<path id="path15_stroke" d="M 5.94783 0.387768C 6.16199 -0.4125 5.68685 -1.23485 4.88658 -1.44901C 4.08631 -1.66317 3.26396 -1.18803 3.0498 -0.387761L 5.94783 0.387768ZM -1.44902 16.4236C -1.66317 17.2239 -1.18804 18.0462 -0.387768 18.2604C 0.4125 18.4745 1.23485 17.9994 1.44901 17.1991L -1.44902 16.4236ZM 3.0498 -0.387761L -1.44902 16.4236L 1.44901 17.1991L 5.94783 0.387768L 3.0498 -0.387761Z"/>
<path id="path16_stroke" d="M -0.821489 7.26902C -1.51463 7.72272 -1.70875 8.65242 -1.25505 9.34557C -0.801357 10.0387 0.128342 10.2328 0.821488 9.77913L -0.821489 7.26902ZM 13.8444 1.25506C 14.5375 0.801364 14.7316 -0.128335 14.2779 -0.821481C 13.8242 -1.51463 12.8945 -1.70874 12.2014 -1.25505L 13.8444 1.25506ZM 0.821488 9.77913L 13.8444 1.25506L 12.2014 -1.25505L -0.821489 7.26902L 0.821488 9.77913Z"/>
<path id="path17_stroke" d="M -1.49838 99.2595C -1.53685 100.087 -0.897184 100.789 -0.0696505 100.828C 0.757883 100.866 1.45992 100.226 1.49838 99.3988L -1.49838 99.2595ZM 6.11558 0.069651C 6.15405 -0.757883 5.51438 -1.45991 4.68685 -1.49838C 3.85932 -1.53685 3.15728 -0.897184 3.11882 -0.0696501L 6.11558 0.069651ZM 1.49838 99.3988L 6.11558 0.069651L 3.11882 -0.0696501L -1.49838 99.2595L 1.49838 99.3988Z"/>
<path id="path18_stroke" d="M -0.129828 15.6722C -0.955147 15.7439 -1.56607 16.471 -1.49437 17.2964C -1.42267 18.1217 -0.69549 18.7326 0.129828 18.6609L -0.129828 15.6722ZM 197.723 1.49437C 198.548 1.42267 199.159 0.69549 199.087 -0.129828C 199.015 -0.955146 198.288 -1.56607 197.463 -1.49437L 197.723 1.49437ZM 0.129828 18.6609L 197.723 1.49437L 197.463 -1.49437L -0.129828 15.6722L 0.129828 18.6609Z"/>
<path id="path19_stroke" d="M -0.552822 110.826C -0.545742 111.654 0.131546 112.32 0.959943 112.313C 1.78834 112.306 2.45415 111.629 2.44707 110.8L -0.552822 110.826ZM 1.49995 -0.0128219C 1.49286 -0.841219 0.815577 -1.50703 -0.0128201 -1.49995C -0.841217 -1.49287 -1.50703 -0.815579 -1.49995 0.0128183L 1.49995 -0.0128219ZM 2.44707 110.8L 1.49995 -0.0128219L -1.49995 0.0128183L -0.552822 110.826L 2.44707 110.8Z"/>
<path id="path20_stroke" d="M 123.58 22.9066C 124.396 23.0479 125.173 22.5006 125.314 21.6843C 125.455 20.868 124.908 20.0918 124.092 19.9505L 123.58 22.9066ZM 0.255763 -1.47803C -0.560533 -1.61929 -1.33678 -1.07206 -1.47803 -0.255759C -1.61928 0.560537 -1.07205 1.33678 -0.255756 1.47803L 0.255763 -1.47803ZM 124.092 19.9505L 0.255763 -1.47803L -0.255756 1.47803L 123.58 22.9066L 124.092 19.9505Z"/>
<path id="path21_stroke" d="M 2.0528 92.7567C 2.08451 93.5845 2.78131 94.2299 3.60913 94.1982C 4.43695 94.1665 5.08231 93.4697 5.0506 92.6419L 2.0528 92.7567ZM 1.4989 -0.0574287C 1.46718 -0.885248 0.770391 -1.53062 -0.0574291 -1.4989C -0.885249 -1.46718 -1.53062 -0.77039 -1.4989 0.0574296L 1.4989 -0.0574287ZM 5.0506 92.6419L 1.4989 -0.0574287L -1.4989 0.0574296L 2.0528 92.7567L 5.0506 92.6419Z"/>
<path id="path22_stroke" d="M 176.266 1.49656C 177.092 1.44045 177.717 0.724945 177.661 -0.101581C 177.605 -0.928106 176.889 -1.55266 176.063 -1.49656L 176.266 1.49656ZM -0.101581 10.4608C -0.928106 10.5169 -1.55266 11.2324 -1.49656 12.059C -1.44045 12.8855 -0.724945 13.51 0.101581 13.4539L -0.101581 10.4608ZM 176.063 -1.49656L -0.101581 10.4608L 0.101581 13.4539L 176.266 1.49656L 176.063 -1.49656Z"/>
<path id="path23_stroke" d="M 0.613724 -1.3687C -0.142189 -1.70765 -1.02975 -1.36963 -1.3687 -0.613722C -1.70765 0.142191 -1.36964 1.02975 -0.613724 1.3687L 0.613724 -1.3687ZM 99.189 46.1201C 99.9449 46.459 100.832 46.121 101.171 45.3651C 101.51 44.6092 101.172 43.7216 100.416 43.3827L 99.189 46.1201ZM -0.613724 1.3687L 99.189 46.1201L 100.416 43.3827L 0.613724 -1.3687L -0.613724 1.3687Z"/>
<path id="path24_stroke" d="M 0.377608 -1.45169C -0.42414 -1.66024 -1.24315 -1.17936 -1.45169 -0.377608C -1.66024 0.42414 -1.17936 1.24315 -0.377608 1.45169L 0.377608 -1.45169ZM 102.03 28.0894C 102.831 28.298 103.65 27.8171 103.859 27.0153C 104.067 26.2136 103.587 25.3946 102.785 25.186L 102.03 28.0894ZM -0.377608 1.45169L 102.03 28.0894L 102.785 25.186L 0.377608 -1.45169L -0.377608 1.45169Z"/>
<path id="path25_stroke" d="M 0.623387 -1.36433C -0.13011 -1.70861 -1.02004 -1.37688 -1.36433 -0.623387C -1.70861 0.13011 -1.37688 1.02004 -0.623387 1.36433L 0.623387 -1.36433ZM 90.0633 42.8008C 90.8168 43.1451 91.7067 42.8133 92.051 42.0598C 92.3953 41.3064 92.0635 40.4164 91.31 40.0721L 90.0633 42.8008ZM -0.623387 1.36433L 90.0633 42.8008L 91.31 40.0721L 0.623387 -1.36433L -0.623387 1.36433Z"/>
<path id="path26_stroke" d="M -0.228778 24.9185C -1.04751 25.0448 -1.6088 25.811 -1.48245 26.6297C -1.3561 27.4485 -0.589953 28.0097 0.228781 27.8834L -0.228778 24.9185ZM 171.302 1.48245C 172.121 1.3561 172.682 0.589952 172.556 -0.228783C 172.429 -1.04752 171.663 -1.60881 170.845 -1.48245L 171.302 1.48245ZM 0.228781 27.8834L 171.302 1.48245L 170.845 -1.48245L -0.228778 24.9185L 0.228781 27.8834Z"/>
<path id="path27_stroke" d="M 3.59678 8.27675C 4.04865 8.97108 4.97783 9.16764 5.67217 8.71577C 6.36651 8.2639 6.56307 7.33472 6.1112 6.64038L 3.59678 8.27675ZM 1.25721 -0.818187C 0.805343 -1.51252 -0.123842 -1.70908 -0.81818 -1.25721C -1.51252 -0.805343 -1.70908 0.123842 -1.25721 0.81818L 1.25721 -0.818187ZM 6.1112 6.64038L 1.25721 -0.818187L -1.25721 0.81818L 3.59678 8.27675L 6.1112 6.64038Z"/>
<path id="path28_stroke" d="M -0.774527 8.4234C -1.48397 8.85115 -1.71233 9.77304 -1.28458 10.4825C -0.856822 11.1919 0.0650638 11.4203 0.774512 10.9925L -0.774527 8.4234ZM 16.8755 1.28457C 17.585 0.856815 17.8134 -0.065071 17.3856 -0.774519C 16.9578 -1.48397 16.036 -1.71233 15.3265 -1.28457L 16.8755 1.28457ZM 0.774512 10.9925L 16.8755 1.28457L 15.3265 -1.28457L -0.774527 8.4234L 0.774512 10.9925Z"/>
<path id="path29_stroke" d="M 0.916025 -1.18781C 0.260014 -1.69372 -0.681906 -1.57203 -1.18781 -0.916023C -1.69372 -0.260012 -1.57204 0.681908 -0.916025 1.18781L 0.916025 -1.18781ZM 13.054 11.9613C 13.71 12.4672 14.6519 12.3455 15.1578 11.6895C 15.6637 11.0335 15.542 10.0916 14.886 9.58567L 13.054 11.9613ZM -0.916025 1.18781L 13.054 11.9613L 14.886 9.58567L 0.916025 -1.18781L -0.916025 1.18781Z"/>
<path id="path30_stroke" d="M -0.221344 27.1668C -1.0407 27.289 -1.60582 28.0523 -1.48357 28.8717C -1.36133 29.6911 -0.598006 30.2562 0.221351 30.1339L -0.221344 27.1668ZM 192.25 1.48358C 193.069 1.36133 193.634 0.59801 193.512 -0.221348C 193.39 -1.04071 192.626 -1.60583 191.807 -1.48358L 192.25 1.48358ZM 0.221351 30.1339L 192.25 1.48358L 191.807 -1.48358L -0.221344 27.1668L 0.221351 30.1339Z"/>
<path id="path31_stroke" d="M 43.5781 63.7183C 44.3109 64.1047 45.2182 63.824 45.6046 63.0912C 45.9911 62.3584 45.7103 61.4511 44.9775 61.0647L 43.5781 63.7183ZM 1.48316 -0.224124C 1.35938 -1.04325 0.595004 -1.60694 -0.224124 -1.48316C -1.04325 -1.35938 -1.60694 -0.595007 -1.48316 0.22412L 1.48316 -0.224124ZM 44.9775 61.0647C 21.6039 48.7383 5.43744 25.9439 1.48316 -0.224124L -1.48316 0.22412C 2.61307 27.3316 19.359 50.946 43.5781 63.7183L 44.9775 61.0647Z"/>
<path id="path32_stroke" d="M 124.362 0.283966C 124.518 -0.529481 123.986 -1.31605 123.173 -1.47288C 122.359 -1.62971 121.573 -1.09741 121.416 -0.283966L 124.362 0.283966ZM 0.700544 57.7502C -0.0319862 57.3633 -0.939463 57.6435 -1.32636 58.376C -1.71326 59.1085 -1.43307 60.016 -0.700544 60.4029L 0.700544 57.7502ZM 121.416 -0.283966C 110.832 54.6126 50.2389 83.9148 0.700544 57.7502L -0.700544 60.4029C 50.6293 87.5138 113.399 57.1474 124.362 0.283966L 121.416 -0.283966Z"/>
</defs>
</svg>
